<?xml version="1.0" encoding="UTF-8" standalone="no"?>
<!-- Created with Inkscape (http://www.inkscape.org/) -->

<svg
   xmlns:dc="http://purl.org/dc/elements/1.1/"
   xmlns:cc="http://creativecommons.org/ns#"
   xmlns:rdf="http://www.w3.org/1999/02/22-rdf-syntax-ns#"
   xmlns:svg="http://www.w3.org/2000/svg"
   xmlns="http://www.w3.org/2000/svg"
   xmlns:sodipodi="http://sodipodi.sourceforge.net/DTD/sodipodi-0.dtd"
   xmlns:inkscape="http://www.inkscape.org/namespaces/inkscape"
   version="1.1"
   id="svg3783"
   width="689"
   height="377"
   viewBox="0 0 689 377"
   sodipodi:docname="Signature_aesthetic_large.svg"
   inkscape:version="0.92.3 (5aff6ba, 2018-11-25)">
  <metadata
     id="metadata3789">
    <rdf:RDF>
      <cc:Work
         rdf:about="">
        <dc:format>image/svg+xml</dc:format>
        <dc:type
           rdf:resource="http://purl.org/dc/dcmitype/StillImage" />
        <dc:title></dc:title>
      </cc:Work>
    </rdf:RDF>
  </metadata>
  <defs
     id="defs3787" />
  <sodipodi:namedview
     pagecolor="#ffffff"
     bordercolor="#666666"
     borderopacity="1"
     objecttolerance="10"
     gridtolerance="10"
     guidetolerance="10"
     inkscape:pageopacity="0"
     inkscape:pageshadow="2"
     inkscape:window-width="3078"
     inkscape:window-height="1671"
     id="namedview3785"
     showgrid="false"
     inkscape:zoom="1.6113689"
     inkscape:cx="157.66091"
     inkscape:cy="325.95906"
     inkscape:window-x="122"
     inkscape:window-y="55"
     inkscape:window-maximized="1"
     inkscape:current-layer="svg3783" />
  <path
     style="fill:#E63946"
     d="m 358.37331,325.88502 c -1.65,-0.20899 -7.725,-0.88553 -13.5,-1.50344 -19.55427,-2.09225 -43.56638,-7.38291 -51.65782,-11.38192 -9.47033,-4.68049 -12.57531,-8.59427 -13.15287,-16.57899 -0.35755,-4.94317 -0.0265,-6.53739 2.10815,-10.15223 4.06539,-6.88434 8.18769,-10.07798 26.20254,-20.29969 20.1456,-11.43071 45.70447,-23.99735 72.28141,-35.5389 l 19.28142,-8.37333 -5.6258,-3.03816 c -3.09419,-1.67098 -10.82244,-6.0854 -17.17388,-9.80981 -11.21055,-6.57374 -11.61992,-6.72459 -14.00612,-5.1611 -1.52348,0.99822 -4.5287,6.01742 -7.90417,13.20121 -7.11263,15.13737 -11.14978,20.60667 -16.80494,22.7664 -3.56646,1.36204 -5.02474,1.46289 -7.81897,0.54071 -4.43952,-1.46517 -6.77481,-4.09113 -10.73889,-12.07556 -1.7749,-3.575 -3.34142,-6.63016 -3.48115,-6.78924 -0.27994,-0.31871 -29.34344,10.02451 -50.50891,17.97528 -8.75969,3.29056 -15.67509,5.24816 -19.69447,5.57506 -5.92036,0.48151 -6.33485,0.36342 -9.36699,-2.66871 -2.6645,-2.6645 -3.07181,-3.67602 -2.54365,-6.31684 0.34587,-1.72937 1.36289,-3.95541 2.26004,-4.94675 1.9078,-2.1081 36.43366,-15.90112 57.34507,-22.90926 14.925,-5.00189 16.15972,-5.88406 13.96781,-9.97968 -1.53691,-2.87175 -5.42311,-2.24757 -18.08631,2.90491 -9.09014,3.69866 -20.85358,7.59844 -100.3815,33.27818 -49.87561,16.10495 -52.54092,17.0678 -80.00001,28.90031 -21.14463,9.11151 -28.33235,10.66616 -34.52002,7.46639 -5.49004,-2.83901 -6.67631,-9.3319 -2.5876,-14.16292 1.31581,-1.5547 6.82615,-5.52673 12.24519,-8.82673 5.41904,-3.3 18.62997,-11.89538 29.35762,-19.10084 10.72764,-7.20546 24.90482,-16.14992 31.50482,-19.87659 6.6,-3.72666 21.012,-12.50695 32.02667,-19.51175 26.57223,-16.89867 43.6967,-26.88795 81.47333,-47.52618 60.38967,-32.99225 79.819,-45.185166 93.08797,-58.417576 7.95084,-7.92892 13.91203,-15.48561 13.91203,-17.63554 0,-1.73744 -5.73083,-5.13425 -12.16385,-7.20984 -7.8287,-2.52589 -49.7468,-2.45552 -69.33615,0.11641 -54.83649,7.19958 -96.26888,17.15594 -161.00001,38.68891 -16.5,5.488766 -31.95596,10.457146 -34.34657,11.040836 -4.14488,1.01201 -4.26901,1.14696 -2.67505,2.90827 0.97106,1.073 1.53535,3.0365 1.34658,4.68546 -0.49933,4.36155 -4.58127,4.3454 -10.55099,-0.0417 -10.0651,-7.39689 -10.27397,-7.62096 -10.27397,-11.02161 0,-4.58828 3.24837,-7.217166 10.5,-8.497606 3.3,-0.58268 14.1,-2.46737 24,-4.18819 10.91979,-1.89808 27.44029,-5.81113 42.00001,-9.94813 73.84173,-20.98138 94.7719,-25.78783 139,-31.92029 29.09674,-4.03441 66.3715,-5.2771 77.92409,-2.59788 7.44159,1.72582 15.17475,5.34038 17.91613,8.37418 2.72628,3.0171 3.91042,9.53515 2.60976,14.36541 -1.64699,6.11647 -8.08545,11.72496 -30.96012,26.96912 -20.83663,13.885966 -47.70081,29.537316 -85.48986,49.807266 -25.89461,13.88981 -47.54463,26.24844 -62,35.39188 -6.05,3.82681 -18.875,11.88468 -28.5,17.90639 -9.625,6.02171 -20.425,12.87726 -24,15.23457 -3.575,2.3573 -11.9,7.56131 -18.5,11.56446 -21.53154,13.0597 -40.372,26.4019 -39.09096,27.68295 0.23103,0.23102 5.746,-1.15254 12.2555,-3.07458 6.5095,-1.92204 17.46045,-5.13992 24.33546,-7.15086 6.875,-2.01093 17,-5.36175 22.5,-7.44627 5.5,-2.08451 15.175,-5.67763 21.5,-7.9847 6.325,-2.30707 16.9,-6.24911 23.5,-8.7601 6.6,-2.51098 23.925,-8.74007 38.5,-13.84243 14.575,-5.10235 28.525,-10.01604 31,-10.91929 2.475,-0.90325 11.925,-5.30847 21,-9.78938 18.44918,-9.10953 24.5178,-10.56634 30.52951,-7.32882 3.93795,2.12073 7.06565,7.52097 7.995,13.80404 0.38642,2.6125 0.9314,4.75 1.21107,4.75 0.27967,0 5.42353,-1.61961 11.4308,-3.59914 l 10.92231,-3.59915 -8.79435,-8.69501 c -9.18243,-9.07872 -13.78322,-15.78998 -18.0268,-26.29601 -2.15157,-5.32676 -2.44414,-7.29258 -1.9863,-13.34627 0.71145,-9.40701 3.7036,-15.5587 11.16978,-22.96442 5.37744,-5.3339 8.65786,-7.28916 29.54898,-17.61235 38.68164,-19.114246 50.93971,-23.387806 88.5,-30.853986 40.37768,-8.02621 69.27248,-10.89029 79.95308,-7.92501 5.5959,1.55359 10.5469,6.76193 10.5469,11.09501 0,7.04865 -4.5554,13.49555 -21.4291,30.326966 -31.47753,31.39867 -69.64698,58.54976 -110.4464,78.5639 -4.93938,2.42301 -9.01182,4.63047 -9.04988,4.90547 -0.0381,0.275 1.58063,1.4 3.59708,2.5 2.01645,1.1 4.58024,3.24036 5.6973,4.75636 3.85789,5.23567 1.97436,13.48049 -3.75667,16.44412 l -2.95841,1.52985 2.42305,1.88781 c 4.58449,3.5718 6.15461,3.33908 23.62598,-3.50189 9.23839,-3.61732 31.82443,-12.45828 50.19121,-19.64659 61.29424,-23.98906 96.81614,-35.42143 130.72964,-42.07406 20.3761,-3.99707 30.5483,-2.7592 31.1846,3.79491 0.4109,4.232 -2.5868,6.05813 -6.9666,4.24396 -4.9909,-2.0673 -24.3382,-0.56382 -37.8418,2.94067 -26.9695,6.99922 -62.5282,19.3045 -104.6816,36.22558 -12.19992,4.89725 -29.29992,11.62582 -38.00002,14.95237 -26.78343,10.24087 -31.4521,12.21633 -30.6208,12.95662 0.44134,0.39302 11.37744,6.94054 24.30244,14.55003 12.925,7.60949 28.45,16.9705 34.5,20.80223 6.05,3.83173 17.74998,10.77647 25.99998,15.43274 17.1051,9.65403 19.7045,11.32184 24.3353,15.61396 6.9178,6.41173 8.1656,13.30017 3.2605,17.99955 -3.7946,3.63543 -17.4918,8.21136 -28.7893,9.61788 -19.85907,2.4724 -47.79141,5.08696 -63.30648,5.92571 -18.37939,0.99359 -78.82296,2.04538 -83.5,1.453 z m 75.84961,-7.46908 c 37.524,-2.32854 64.42837,-7.65985 80.79717,-16.01059 5.6174,-2.86581 5.7086,-3.83535 0.7755,-8.24247 -10.1743,-9.0895 -61.00895,-41.29546 -98.45926,-62.37828 l -7.03698,-3.9615 -26.96302,11.7796 c -47.3699,20.69496 -65.71546,30.92662 -78.71302,43.89969 -7.11663,7.10322 -7.75,8.06625 -7.75,11.7838 0,3.4568 0.548,4.50438 3.75,7.16858 8.82465,7.34251 22.968,12.09674 46.25,15.54675 10.81882,1.60317 64.11821,1.85605 87.34961,0.41442 z M 286.87331,223.25407 c 20.02763,-6.34663 26,-8.84318 26,-10.86843 0,-1.04799 -0.36559,-1.90543 -0.81241,-1.90543 -2.82822,0 -41.48539,14.96022 -43.18759,16.71348 -1.08691,1.11952 9.00614,-1.08953 18,-3.93962 z m 52.49006,-9.61713 c -0.47161,-0.47162 -7.49006,1.85838 -7.49006,2.48656 0,0.26851 0.50871,1.43872 1.13046,2.60048 1.10353,2.06196 1.19699,2.03077 3.92306,-1.30935 1.53593,-1.8819 2.63238,-3.58186 2.43654,-3.77769 z m -7.49006,-6.15673 c 1.21296,-0.78387 1.06944,-0.9723 -0.75,-0.98469 -1.2375,-0.008 -2.25,0.43469 -2.25,0.98469 0,1.25292 1.06124,1.25292 3,0 z m 72.15534,-31.81607 c 33.14711,-16.81985 59.53206,-34.13912 87.26614,-57.28211 20.5051,-17.11071 32.4897,-30.392836 36.0686,-39.973696 0.8457,-2.26401 -3.1159,-3.76968 -14.3903,-5.46922 -18.121,-2.73162 -30.93441,-1.81074 -63.05021,4.53131 -33.79307,6.67327 -49.99166,12.28012 -80.98291,28.030746 -25.62918,13.02549 -33.73467,20.88861 -35.98212,34.90619 -0.9294,5.79679 -0.79,7.11861 1.42138,13.47743 2.84364,8.17689 9.29551,18.04155 16.29486,24.91422 l 4.90763,4.81881 3.86428,-2.62238 c 4.54646,-3.08531 7.01029,-2.80978 12.92731,1.44567 6.94644,4.9958 9.55523,4.43729 31.65534,-6.77697 z"
     id="path3793"
     inkscape:connector-curvature="0" />
</svg>